<svg id="Layer_1" data-name="Layer 1" xmlns="http://www.w3.org/2000/svg" width="750" height="285" viewBox="0 0 750 285"><title>Artboard 2</title><path d="M542,152.41H670.85v67.37a64.43,64.43,0,0,1-128.85,0Z" fill="#788086"/><path d="M748,152.78V281.63H681V152.78Z" fill="#788086"/><path d="M63.69,5.58V53.07h5.52V5.58h61.66V134.43H69.21V86.94H63.69v47.49H2V5.58Z" fill="#202c36"/><path d="M141.36,5.4H270.21V72.77a64.43,64.43,0,0,1-128.85,0Z" fill="#202c36"/><path d="M280.16.8l64.42,48.77L409,.8l.37,133.81H280.52Z" fill="#202c36"/><path d="M2,281.81v-129H66.45a64.52,64.52,0,0,1,0,129Z" fill="#202c36"/><path d="M254,205.24a51.57,51.57,0,0,1-20.06,41l19,35.52H139.71v-129h61.84A52.44,52.44,0,0,1,254,205.24Z" fill="#202c36"/><path d="M260.83,152.41H389.67v67.37a64.42,64.42,0,0,1-128.84,0Z" fill="#202c36"/><path d="M399.62,147.81,464,196.59l64.42-48.78.37,133.82H400Z" fill="#202c36"/></svg>